# xmcd CD database file
#
# Track frame offsets:
#	150
#	10372
#	21377
#	35185
#	45025
#	56857
#	77940
#	95312
#	111470
#	126170
#	142872
#	156672
#	170280
#	186817
#	204172
#	221082
#	231065
#
# Disc length: 3344 seconds
#
# Revision: 0
# Processed by: cddbd v1.4PL0 Copyright (c) Steve Scherf et al.
# Submitted via: CDex 1.40Beta9
#
DISCID=ed0d0e11
DTITLE=Kukerpillid - Pojad on mul õige naksid CD2
DYEAR=2002
DGENRE=Country
TTITLE0=Vanad majad/R. Sibul
TTITLE1=Murelikud õnnelikud
TTITLE2=Ühiselu (kui naine armastab...)/K. Vilgats
TTITLE3=Kodurand
TTITLE4=Kantri alati jääb/Blind
TTITLE5=Aeg, miks kiirelt kaod
TTITLE6=Dolores
TTITLE7=Kättes rool/Vennaskond
TTITLE8=Punapea Meeri/Tuberkuloited
TTITLE9=Louhi tuleb louna
TTITLE10=Majake jõe kaldal
TTITLE11=Tahan lennata/Justament
TTITLE12=Vedru
TTITLE13=Jahitrofeed/Ultima Thule
TTITLE14=60 rubla (töölispoiss)/L. Saatpalu, Saunamees
TTITLE15=Poiss kadus linna
TTITLE16=Põldsepa popurrii Kukrite lugudest/M. Põldsepp&Pojad
EXTD=YEAR: 2002 ID3G: 2
EXTT0=
EXTT1=
EXTT2=
EXTT3=
EXTT4=
EXTT5=
EXTT6=
EXTT7=
EXTT8=
EXTT9=
EXTT10=
EXTT11=
EXTT12=
EXTT13=
EXTT14=
EXTT15=
EXTT16=
PLAYORDER=
